<mxfile host="app.diagrams.net" modified="2023-07-24T19:47:15.243Z" agent="Mozilla/5.0 (Windows NT 10.0; Win64; x64) AppleWebKit/537.36 (KHTML, like Gecko) Chrome/115.0.0.0 Safari/537.36" etag="a8NM6WyMRZcN6brzhGuE" version="21.6.5" type="device">
  <diagram name="Página-1" id="w-aEpu6-yOGR2qNlsSIG">
    <mxGraphModel dx="2100" dy="1084" grid="1" gridSize="10" guides="1" tooltips="1" connect="1" arrows="1" fold="1" page="1" pageScale="1" pageWidth="827" pageHeight="1169" math="0" shadow="0">
      <root>
        <mxCell id="0" />
        <mxCell id="1" parent="0" />
        <mxCell id="s1kcraG_6ElA7Nsn9bs5-1" value="A Optus é uma empresa no ramo musical que deseja realizar o gerenciamento dos lançamentos de novos cds de seus artistas. Cada álbum lançado poderá conter mais de um estilo vinculado (ex.: Indie e Folk).&#xa;É importante que você crie também uma estratégia para que os usuários possuam acesso à plataforma.&#xa;Os usuários deverão conter nome, email, senha e o tipo de permissão (eles podem ser do tipo administrador ou comum).&#xa;&#xa;&#xa;Observações:&#xa;Os Artistas deverão possuir somente nome.&#xa;Estilos: nome.&#xa;Albuns: titulo, data de lançamento, localizacao, quantidade de minutos, se o álbum está ativo para visualização, a quem pertence (somente um artista por álbum) e quais os estilos vinculados." style="text;whiteSpace=wrap;" vertex="1" parent="1">
          <mxGeometry width="820" height="180" as="geometry" />
        </mxCell>
        <mxCell id="s1kcraG_6ElA7Nsn9bs5-7" style="edgeStyle=orthogonalEdgeStyle;rounded=0;orthogonalLoop=1;jettySize=auto;html=1;entryX=0.5;entryY=1;entryDx=0;entryDy=0;endArrow=none;endFill=0;" edge="1" parent="1" source="s1kcraG_6ElA7Nsn9bs5-2" target="s1kcraG_6ElA7Nsn9bs5-3">
          <mxGeometry relative="1" as="geometry" />
        </mxCell>
        <mxCell id="s1kcraG_6ElA7Nsn9bs5-8" style="edgeStyle=orthogonalEdgeStyle;rounded=0;orthogonalLoop=1;jettySize=auto;html=1;entryX=0.5;entryY=0;entryDx=0;entryDy=0;endArrow=none;endFill=0;" edge="1" parent="1" source="s1kcraG_6ElA7Nsn9bs5-2" target="s1kcraG_6ElA7Nsn9bs5-4">
          <mxGeometry relative="1" as="geometry" />
        </mxCell>
        <mxCell id="s1kcraG_6ElA7Nsn9bs5-9" style="edgeStyle=orthogonalEdgeStyle;rounded=0;orthogonalLoop=1;jettySize=auto;html=1;entryX=0.5;entryY=1;entryDx=0;entryDy=0;endArrow=none;endFill=0;" edge="1" parent="1" source="s1kcraG_6ElA7Nsn9bs5-2" target="s1kcraG_6ElA7Nsn9bs5-6">
          <mxGeometry relative="1" as="geometry" />
        </mxCell>
        <mxCell id="s1kcraG_6ElA7Nsn9bs5-10" style="edgeStyle=orthogonalEdgeStyle;rounded=0;orthogonalLoop=1;jettySize=auto;html=1;entryX=0.5;entryY=0;entryDx=0;entryDy=0;endArrow=none;endFill=0;" edge="1" parent="1" source="s1kcraG_6ElA7Nsn9bs5-2" target="s1kcraG_6ElA7Nsn9bs5-5">
          <mxGeometry relative="1" as="geometry" />
        </mxCell>
        <mxCell id="s1kcraG_6ElA7Nsn9bs5-14" style="edgeStyle=orthogonalEdgeStyle;rounded=0;orthogonalLoop=1;jettySize=auto;html=1;entryX=0.5;entryY=0;entryDx=0;entryDy=0;endArrow=none;endFill=0;" edge="1" parent="1" source="s1kcraG_6ElA7Nsn9bs5-2" target="s1kcraG_6ElA7Nsn9bs5-13">
          <mxGeometry relative="1" as="geometry" />
        </mxCell>
        <mxCell id="s1kcraG_6ElA7Nsn9bs5-2" value="Usuário" style="rounded=0;whiteSpace=wrap;html=1;" vertex="1" parent="1">
          <mxGeometry x="160" y="250" width="120" height="60" as="geometry" />
        </mxCell>
        <mxCell id="s1kcraG_6ElA7Nsn9bs5-3" value="nome" style="ellipse;whiteSpace=wrap;html=1;" vertex="1" parent="1">
          <mxGeometry y="180" width="70" height="60" as="geometry" />
        </mxCell>
        <mxCell id="s1kcraG_6ElA7Nsn9bs5-4" value="email" style="ellipse;whiteSpace=wrap;html=1;" vertex="1" parent="1">
          <mxGeometry y="310" width="70" height="60" as="geometry" />
        </mxCell>
        <mxCell id="s1kcraG_6ElA7Nsn9bs5-5" value="senha" style="ellipse;whiteSpace=wrap;html=1;" vertex="1" parent="1">
          <mxGeometry x="80" y="310" width="70" height="60" as="geometry" />
        </mxCell>
        <mxCell id="s1kcraG_6ElA7Nsn9bs5-6" value="Tipo de permissão" style="ellipse;whiteSpace=wrap;html=1;" vertex="1" parent="1">
          <mxGeometry x="80" y="180" width="70" height="60" as="geometry" />
        </mxCell>
        <mxCell id="s1kcraG_6ElA7Nsn9bs5-22" style="edgeStyle=orthogonalEdgeStyle;rounded=0;orthogonalLoop=1;jettySize=auto;html=1;entryX=0.5;entryY=1;entryDx=0;entryDy=0;endArrow=none;endFill=0;" edge="1" parent="1" source="s1kcraG_6ElA7Nsn9bs5-11" target="s1kcraG_6ElA7Nsn9bs5-19">
          <mxGeometry relative="1" as="geometry" />
        </mxCell>
        <mxCell id="s1kcraG_6ElA7Nsn9bs5-23" style="edgeStyle=orthogonalEdgeStyle;rounded=0;orthogonalLoop=1;jettySize=auto;html=1;entryX=0.5;entryY=0;entryDx=0;entryDy=0;endArrow=none;endFill=0;" edge="1" parent="1" source="s1kcraG_6ElA7Nsn9bs5-11" target="s1kcraG_6ElA7Nsn9bs5-20">
          <mxGeometry relative="1" as="geometry" />
        </mxCell>
        <mxCell id="s1kcraG_6ElA7Nsn9bs5-11" value="Plataforma" style="rounded=0;whiteSpace=wrap;html=1;" vertex="1" parent="1">
          <mxGeometry x="300" y="530" width="120" height="60" as="geometry" />
        </mxCell>
        <mxCell id="s1kcraG_6ElA7Nsn9bs5-15" style="edgeStyle=orthogonalEdgeStyle;rounded=0;orthogonalLoop=1;jettySize=auto;html=1;entryX=0;entryY=0.5;entryDx=0;entryDy=0;endArrow=none;endFill=0;" edge="1" parent="1" source="s1kcraG_6ElA7Nsn9bs5-13" target="s1kcraG_6ElA7Nsn9bs5-11">
          <mxGeometry relative="1" as="geometry">
            <Array as="points">
              <mxPoint x="220" y="560" />
            </Array>
          </mxGeometry>
        </mxCell>
        <mxCell id="s1kcraG_6ElA7Nsn9bs5-13" value="acessa" style="rhombus;whiteSpace=wrap;html=1;" vertex="1" parent="1">
          <mxGeometry x="180" y="360" width="80" height="80" as="geometry" />
        </mxCell>
        <mxCell id="s1kcraG_6ElA7Nsn9bs5-16" value="n" style="text;html=1;strokeColor=none;fillColor=none;align=center;verticalAlign=middle;whiteSpace=wrap;rounded=0;" vertex="1" parent="1">
          <mxGeometry x="200" y="310" width="60" height="30" as="geometry" />
        </mxCell>
        <mxCell id="s1kcraG_6ElA7Nsn9bs5-17" value="1" style="text;html=1;strokeColor=none;fillColor=none;align=center;verticalAlign=middle;whiteSpace=wrap;rounded=0;" vertex="1" parent="1">
          <mxGeometry x="260" y="530" width="60" height="30" as="geometry" />
        </mxCell>
        <mxCell id="s1kcraG_6ElA7Nsn9bs5-28" style="edgeStyle=orthogonalEdgeStyle;rounded=0;orthogonalLoop=1;jettySize=auto;html=1;entryX=0.5;entryY=0;entryDx=0;entryDy=0;endArrow=none;endFill=0;" edge="1" parent="1" source="s1kcraG_6ElA7Nsn9bs5-18" target="s1kcraG_6ElA7Nsn9bs5-27">
          <mxGeometry relative="1" as="geometry">
            <Array as="points">
              <mxPoint x="680" y="360" />
            </Array>
          </mxGeometry>
        </mxCell>
        <mxCell id="s1kcraG_6ElA7Nsn9bs5-36" style="edgeStyle=orthogonalEdgeStyle;rounded=0;orthogonalLoop=1;jettySize=auto;html=1;endArrow=none;endFill=0;" edge="1" parent="1" source="s1kcraG_6ElA7Nsn9bs5-18" target="s1kcraG_6ElA7Nsn9bs5-35">
          <mxGeometry relative="1" as="geometry" />
        </mxCell>
        <mxCell id="s1kcraG_6ElA7Nsn9bs5-55" style="edgeStyle=orthogonalEdgeStyle;rounded=0;orthogonalLoop=1;jettySize=auto;html=1;entryX=0.5;entryY=1;entryDx=0;entryDy=0;" edge="1" parent="1" source="s1kcraG_6ElA7Nsn9bs5-18" target="s1kcraG_6ElA7Nsn9bs5-50">
          <mxGeometry relative="1" as="geometry">
            <Array as="points">
              <mxPoint x="520" y="310" />
              <mxPoint x="444" y="310" />
            </Array>
          </mxGeometry>
        </mxCell>
        <mxCell id="s1kcraG_6ElA7Nsn9bs5-56" style="edgeStyle=orthogonalEdgeStyle;rounded=0;orthogonalLoop=1;jettySize=auto;html=1;entryX=0.5;entryY=1;entryDx=0;entryDy=0;" edge="1" parent="1" source="s1kcraG_6ElA7Nsn9bs5-18" target="s1kcraG_6ElA7Nsn9bs5-51">
          <mxGeometry relative="1" as="geometry" />
        </mxCell>
        <mxCell id="s1kcraG_6ElA7Nsn9bs5-57" style="edgeStyle=orthogonalEdgeStyle;rounded=0;orthogonalLoop=1;jettySize=auto;html=1;entryX=0.5;entryY=1;entryDx=0;entryDy=0;" edge="1" parent="1" source="s1kcraG_6ElA7Nsn9bs5-18" target="s1kcraG_6ElA7Nsn9bs5-52">
          <mxGeometry relative="1" as="geometry">
            <Array as="points">
              <mxPoint x="520" y="310" />
              <mxPoint x="595" y="310" />
            </Array>
          </mxGeometry>
        </mxCell>
        <mxCell id="s1kcraG_6ElA7Nsn9bs5-58" style="edgeStyle=orthogonalEdgeStyle;rounded=0;orthogonalLoop=1;jettySize=auto;html=1;entryX=0.5;entryY=1;entryDx=0;entryDy=0;" edge="1" parent="1" source="s1kcraG_6ElA7Nsn9bs5-18" target="s1kcraG_6ElA7Nsn9bs5-53">
          <mxGeometry relative="1" as="geometry">
            <Array as="points">
              <mxPoint x="520" y="310" />
              <mxPoint x="670" y="310" />
            </Array>
          </mxGeometry>
        </mxCell>
        <mxCell id="s1kcraG_6ElA7Nsn9bs5-59" style="edgeStyle=orthogonalEdgeStyle;rounded=0;orthogonalLoop=1;jettySize=auto;html=1;entryX=0.5;entryY=1;entryDx=0;entryDy=0;" edge="1" parent="1" source="s1kcraG_6ElA7Nsn9bs5-18" target="s1kcraG_6ElA7Nsn9bs5-54">
          <mxGeometry relative="1" as="geometry">
            <Array as="points">
              <mxPoint x="520" y="310" />
              <mxPoint x="745" y="310" />
            </Array>
          </mxGeometry>
        </mxCell>
        <mxCell id="s1kcraG_6ElA7Nsn9bs5-18" value="Album" style="rounded=0;whiteSpace=wrap;html=1;" vertex="1" parent="1">
          <mxGeometry x="460" y="330" width="120" height="60" as="geometry" />
        </mxCell>
        <mxCell id="s1kcraG_6ElA7Nsn9bs5-24" style="edgeStyle=orthogonalEdgeStyle;rounded=0;orthogonalLoop=1;jettySize=auto;html=1;entryX=0;entryY=0.5;entryDx=0;entryDy=0;endArrow=none;endFill=0;" edge="1" parent="1" source="s1kcraG_6ElA7Nsn9bs5-19" target="s1kcraG_6ElA7Nsn9bs5-18">
          <mxGeometry relative="1" as="geometry">
            <Array as="points">
              <mxPoint x="360" y="360" />
            </Array>
          </mxGeometry>
        </mxCell>
        <mxCell id="s1kcraG_6ElA7Nsn9bs5-19" value="possui" style="rhombus;whiteSpace=wrap;html=1;" vertex="1" parent="1">
          <mxGeometry x="320" y="400" width="80" height="80" as="geometry" />
        </mxCell>
        <mxCell id="s1kcraG_6ElA7Nsn9bs5-25" style="edgeStyle=orthogonalEdgeStyle;rounded=0;orthogonalLoop=1;jettySize=auto;html=1;entryX=0;entryY=0.5;entryDx=0;entryDy=0;endArrow=none;endFill=0;" edge="1" parent="1" source="s1kcraG_6ElA7Nsn9bs5-20" target="s1kcraG_6ElA7Nsn9bs5-21">
          <mxGeometry relative="1" as="geometry">
            <Array as="points">
              <mxPoint x="360" y="790" />
            </Array>
          </mxGeometry>
        </mxCell>
        <mxCell id="s1kcraG_6ElA7Nsn9bs5-20" value="possui" style="rhombus;whiteSpace=wrap;html=1;" vertex="1" parent="1">
          <mxGeometry x="320" y="660" width="80" height="80" as="geometry" />
        </mxCell>
        <mxCell id="s1kcraG_6ElA7Nsn9bs5-21" value="Artista" style="rounded=0;whiteSpace=wrap;html=1;" vertex="1" parent="1">
          <mxGeometry x="460" y="760" width="120" height="60" as="geometry" />
        </mxCell>
        <mxCell id="s1kcraG_6ElA7Nsn9bs5-34" style="edgeStyle=orthogonalEdgeStyle;rounded=0;orthogonalLoop=1;jettySize=auto;html=1;entryX=0;entryY=0.5;entryDx=0;entryDy=0;endArrow=none;endFill=0;" edge="1" parent="1" source="s1kcraG_6ElA7Nsn9bs5-26" target="s1kcraG_6ElA7Nsn9bs5-33">
          <mxGeometry relative="1" as="geometry" />
        </mxCell>
        <mxCell id="s1kcraG_6ElA7Nsn9bs5-26" value="estilo" style="rounded=0;whiteSpace=wrap;html=1;" vertex="1" parent="1">
          <mxGeometry x="620" y="550" width="120" height="60" as="geometry" />
        </mxCell>
        <mxCell id="s1kcraG_6ElA7Nsn9bs5-29" style="edgeStyle=orthogonalEdgeStyle;rounded=0;orthogonalLoop=1;jettySize=auto;html=1;entryX=0.5;entryY=0;entryDx=0;entryDy=0;endArrow=none;endFill=0;" edge="1" parent="1" source="s1kcraG_6ElA7Nsn9bs5-27" target="s1kcraG_6ElA7Nsn9bs5-26">
          <mxGeometry relative="1" as="geometry" />
        </mxCell>
        <mxCell id="s1kcraG_6ElA7Nsn9bs5-27" value="possui" style="rhombus;whiteSpace=wrap;html=1;" vertex="1" parent="1">
          <mxGeometry x="640" y="420" width="80" height="80" as="geometry" />
        </mxCell>
        <mxCell id="s1kcraG_6ElA7Nsn9bs5-33" value="Nome" style="ellipse;whiteSpace=wrap;html=1;" vertex="1" parent="1">
          <mxGeometry x="757" y="550" width="70" height="60" as="geometry" />
        </mxCell>
        <mxCell id="s1kcraG_6ElA7Nsn9bs5-37" style="edgeStyle=orthogonalEdgeStyle;rounded=0;orthogonalLoop=1;jettySize=auto;html=1;entryX=0.5;entryY=0;entryDx=0;entryDy=0;endArrow=none;endFill=0;" edge="1" parent="1" source="s1kcraG_6ElA7Nsn9bs5-35" target="s1kcraG_6ElA7Nsn9bs5-21">
          <mxGeometry relative="1" as="geometry" />
        </mxCell>
        <mxCell id="s1kcraG_6ElA7Nsn9bs5-35" value="possui" style="rhombus;whiteSpace=wrap;html=1;" vertex="1" parent="1">
          <mxGeometry x="480" y="520" width="80" height="80" as="geometry" />
        </mxCell>
        <mxCell id="s1kcraG_6ElA7Nsn9bs5-38" value="1" style="text;html=1;strokeColor=none;fillColor=none;align=center;verticalAlign=middle;whiteSpace=wrap;rounded=0;" vertex="1" parent="1">
          <mxGeometry x="340" y="590" width="60" height="30" as="geometry" />
        </mxCell>
        <mxCell id="s1kcraG_6ElA7Nsn9bs5-39" value="n" style="text;html=1;strokeColor=none;fillColor=none;align=center;verticalAlign=middle;whiteSpace=wrap;rounded=0;" vertex="1" parent="1">
          <mxGeometry x="420" y="760" width="60" height="30" as="geometry" />
        </mxCell>
        <mxCell id="s1kcraG_6ElA7Nsn9bs5-42" value="n" style="text;html=1;strokeColor=none;fillColor=none;align=center;verticalAlign=middle;whiteSpace=wrap;rounded=0;" vertex="1" parent="1">
          <mxGeometry x="500" y="390" width="60" height="30" as="geometry" />
        </mxCell>
        <mxCell id="s1kcraG_6ElA7Nsn9bs5-43" value="1" style="text;html=1;strokeColor=none;fillColor=none;align=center;verticalAlign=middle;whiteSpace=wrap;rounded=0;" vertex="1" parent="1">
          <mxGeometry x="500" y="730" width="60" height="30" as="geometry" />
        </mxCell>
        <mxCell id="s1kcraG_6ElA7Nsn9bs5-44" value="1" style="text;html=1;strokeColor=none;fillColor=none;align=center;verticalAlign=middle;whiteSpace=wrap;rounded=0;" vertex="1" parent="1">
          <mxGeometry x="340" y="500" width="60" height="30" as="geometry" />
        </mxCell>
        <mxCell id="s1kcraG_6ElA7Nsn9bs5-45" value="n" style="text;html=1;strokeColor=none;fillColor=none;align=center;verticalAlign=middle;whiteSpace=wrap;rounded=0;" vertex="1" parent="1">
          <mxGeometry x="414" y="330" width="60" height="30" as="geometry" />
        </mxCell>
        <mxCell id="s1kcraG_6ElA7Nsn9bs5-46" value="n" style="text;html=1;strokeColor=none;fillColor=none;align=center;verticalAlign=middle;whiteSpace=wrap;rounded=0;" vertex="1" parent="1">
          <mxGeometry x="560" y="330" width="60" height="30" as="geometry" />
        </mxCell>
        <mxCell id="s1kcraG_6ElA7Nsn9bs5-47" value="n" style="text;html=1;strokeColor=none;fillColor=none;align=center;verticalAlign=middle;whiteSpace=wrap;rounded=0;" vertex="1" parent="1">
          <mxGeometry x="660" y="520" width="60" height="30" as="geometry" />
        </mxCell>
        <mxCell id="s1kcraG_6ElA7Nsn9bs5-49" style="edgeStyle=orthogonalEdgeStyle;rounded=0;orthogonalLoop=1;jettySize=auto;html=1;entryX=0.5;entryY=1;entryDx=0;entryDy=0;endArrow=none;endFill=0;" edge="1" parent="1" source="s1kcraG_6ElA7Nsn9bs5-48" target="s1kcraG_6ElA7Nsn9bs5-21">
          <mxGeometry relative="1" as="geometry" />
        </mxCell>
        <mxCell id="s1kcraG_6ElA7Nsn9bs5-48" value="Nome" style="ellipse;whiteSpace=wrap;html=1;" vertex="1" parent="1">
          <mxGeometry x="485" y="880" width="70" height="60" as="geometry" />
        </mxCell>
        <mxCell id="s1kcraG_6ElA7Nsn9bs5-50" value="Título" style="ellipse;whiteSpace=wrap;html=1;" vertex="1" parent="1">
          <mxGeometry x="409" y="190" width="70" height="60" as="geometry" />
        </mxCell>
        <mxCell id="s1kcraG_6ElA7Nsn9bs5-51" value="data de lançamento" style="ellipse;whiteSpace=wrap;html=1;" vertex="1" parent="1">
          <mxGeometry x="485" y="190" width="70" height="60" as="geometry" />
        </mxCell>
        <mxCell id="s1kcraG_6ElA7Nsn9bs5-52" value="Local" style="ellipse;whiteSpace=wrap;html=1;" vertex="1" parent="1">
          <mxGeometry x="560" y="190" width="70" height="60" as="geometry" />
        </mxCell>
        <mxCell id="s1kcraG_6ElA7Nsn9bs5-53" value="qntd de minutos" style="ellipse;whiteSpace=wrap;html=1;" vertex="1" parent="1">
          <mxGeometry x="635" y="190" width="70" height="60" as="geometry" />
        </mxCell>
        <mxCell id="s1kcraG_6ElA7Nsn9bs5-54" value="Ativo" style="ellipse;whiteSpace=wrap;html=1;" vertex="1" parent="1">
          <mxGeometry x="710" y="190" width="70" height="60" as="geometry" />
        </mxCell>
      </root>
    </mxGraphModel>
  </diagram>
</mxfile>
